<?xml version="1.0" encoding="UTF-8" standalone="no"?>
<!-- Generator: Adobe Illustrator 13.0.1, SVG Export Plug-In . SVG Version: 6.00 Build 14948)  -->

<svg
   xmlns:dc="http://purl.org/dc/elements/1.1/"
   xmlns:cc="http://creativecommons.org/ns#"
   xmlns:rdf="http://www.w3.org/1999/02/22-rdf-syntax-ns#"
   xmlns:svg="http://www.w3.org/2000/svg"
   xmlns="http://www.w3.org/2000/svg"
   xmlns:xlink="http://www.w3.org/1999/xlink"
   xmlns:sodipodi="http://sodipodi.sourceforge.net/DTD/sodipodi-0.dtd"
   xmlns:inkscape="http://www.inkscape.org/namespaces/inkscape"
   version="1.1"
   x="0px"
   y="0px"
   width="256"
   height="256"
   viewBox="0 0 256 256"
   enable-background="new 0 0 120 40"
   xml:space="preserve"
   id="svg3188"
   inkscape:version="0.48.2 r9819"
   sodipodi:docname="icon.svg"
   inkscape:export-filename="/home/chromakode/Documents/code/reddit/reddit-public/r2/r2/public/static/icon.png"
   inkscape:export-xdpi="90"
   inkscape:export-ydpi="90"><metadata
   id="metadata3252"><rdf:RDF><cc:Work
       rdf:about=""><dc:format>image/svg+xml</dc:format><dc:type
         rdf:resource="http://purl.org/dc/dcmitype/StillImage" /><dc:title></dc:title></cc:Work></rdf:RDF></metadata><defs
   id="defs3250"><linearGradient
     inkscape:collect="always"
     id="linearGradient6575"><stop
       style="stop-color:#000000;stop-opacity:1;"
       offset="0"
       id="stop6577" /><stop
       style="stop-color:#000000;stop-opacity:0;"
       offset="1"
       id="stop6579" /></linearGradient><linearGradient
     inkscape:collect="always"
     id="linearGradient6550"><stop
       style="stop-color:#000000;stop-opacity:1;"
       offset="0"
       id="stop6552" /><stop
       style="stop-color:#000000;stop-opacity:0;"
       offset="1"
       id="stop6554" /></linearGradient><filter
     inkscape:collect="always"
     id="filter6522"
     x="-0.05951417"
     width="1.1190283"
     y="-0.35708502"
     height="1.71417"><feGaussianBlur
       inkscape:collect="always"
       stdDeviation="4.4635628"
       id="feGaussianBlur6524" /></filter><radialGradient
     inkscape:collect="always"
     xlink:href="#linearGradient6550"
     id="radialGradient6556"
     cx="-28"
     cy="130.5"
     fx="-28"
     fy="130.5"
     r="56.678241"
     gradientUnits="userSpaceOnUse"
     gradientTransform="matrix(0.93869985,0,0,0.89494804,-1.7164047,13.709281)" /><radialGradient
     inkscape:collect="always"
     xlink:href="#linearGradient6575"
     id="radialGradient6581"
     cx="-11.755651"
     cy="92.039612"
     fx="-11.755651"
     fy="92.039612"
     r="20.771261"
     gradientUnits="userSpaceOnUse" /></defs><sodipodi:namedview
   pagecolor="#ffffff"
   bordercolor="#666666"
   borderopacity="1"
   objecttolerance="10"
   gridtolerance="10"
   guidetolerance="10"
   inkscape:pageopacity="0"
   inkscape:pageshadow="2"
   inkscape:window-width="1379"
   inkscape:window-height="1139"
   id="namedview3248"
   showgrid="false"
   inkscape:zoom="4"
   inkscape:cx="136.38119"
   inkscape:cy="22.640306"
   inkscape:window-x="2085"
   inkscape:window-y="24"
   inkscape:window-maximized="0"
   inkscape:current-layer="svg3188" />
<path
   sodipodi:type="arc"
   style="opacity:0.25;color:#000000;fill:url(#radialGradient6581);fill-opacity:1;fill-rule:nonzero;stroke:none;stroke-width:3.35648130999999994;marker:none;visibility:visible;display:inline;overflow:visible;enable-background:accumulate"
   id="path6573"
   sodipodi:cx="-11.755651"
   sodipodi:cy="92.039612"
   sodipodi:rx="20.771261"
   sodipodi:ry="20.771261"
   d="m 9.0156097,92.039612 a 20.771261,20.771261 0 1 1 -41.5425227,0 20.771261,20.771261 0 1 1 41.5425227,0 z"
   transform="matrix(4.1827282,0,0,0.64323139,177.17069,183.43651)" /><g
   id="Layer_2"
   transform="matrix(6.1626828,0,0,6.1626828,-246.29054,-0.5172866)">
	<ellipse
   cx="65.245003"
   cy="28.417999"
   rx="4.4109998"
   ry="5.3239999"
   id="ellipse3191"
   sodipodi:cx="65.245003"
   sodipodi:cy="28.417999"
   sodipodi:rx="4.4109998"
   sodipodi:ry="5.3239999"
   style="fill:#ffffff;stroke:#000000;stroke-width:1.10000002"
   d="m 69.656003,28.417999 c 0,2.940364 -1.974872,5.324 -4.411,5.324 -2.436128,0 -4.411,-2.383636 -4.411,-5.324 0,-2.940364 1.974872,-5.324 4.411,-5.324 2.436128,0 4.411,2.383636 4.411,5.324 z" />
	<g
   id="g3193">
		<g
   id="g3195">
			<path
   d="m 58.303,39.285 c 0.063,-0.197 0.108,-0.4 0.108,-0.615 0,-1.359 -1.361,-2.463 -3.04,-2.463 -1.679,0 -3.039,1.104 -3.039,2.463 0,0.215 0.044,0.418 0.108,0.615 h 5.863 z"
   id="path3197"
   inkscape:connector-curvature="0"
   style="fill:#ffffff" />
		</g>
		<g
   id="g3199">
			<path
   d="m 58.303,39.285 c 0.063,-0.197 0.108,-0.4 0.108,-0.615 0,-1.359 -1.361,-2.463 -3.04,-2.463 -1.679,0 -3.039,1.104 -3.039,2.463 0,0.215 0.044,0.418 0.108,0.615 h 5.863 z"
   id="path3201"
   inkscape:connector-curvature="0"
   style="fill:none;stroke:#000000;stroke-width:1.10000002;stroke-linecap:round;stroke-linejoin:round" />
		</g>
	</g>
	<g
   id="g3203">
		<g
   id="g3205">
			<path
   d="m 68.949,39.285 c 0.062,-0.197 0.107,-0.4 0.107,-0.615 0,-1.359 -1.361,-2.463 -3.041,-2.463 -1.679,0 -3.039,1.104 -3.039,2.463 0,0.215 0.043,0.418 0.107,0.615 h 5.866 z"
   id="path3207"
   inkscape:connector-curvature="0"
   style="fill:#ffffff" />
		</g>
		<g
   id="g3209">
			<path
   d="m 68.949,39.285 c 0.062,-0.197 0.107,-0.4 0.107,-0.615 0,-1.359 -1.361,-2.463 -3.041,-2.463 -1.679,0 -3.039,1.104 -3.039,2.463 0,0.215 0.043,0.418 0.107,0.615 h 5.866 z"
   id="path3211"
   inkscape:connector-curvature="0"
   style="fill:none;stroke:#000000;stroke-width:1.10000002;stroke-linecap:round;stroke-linejoin:round" />
		</g>
	</g>
	<circle
   cx="49.683998"
   cy="11.836"
   r="2.7019999"
   id="circle3213"
   sodipodi:cx="49.683998"
   sodipodi:cy="11.836"
   sodipodi:rx="2.7019999"
   sodipodi:ry="2.7019999"
   style="fill:#ffffff;stroke:#000000;stroke-width:1.10000002"
   d="m 52.385998,11.836 c 0,1.492274 -1.209727,2.702 -2.702,2.702 -1.492273,0 -2.702,-1.209726 -2.702,-2.702 0,-1.492273 1.209727,-2.7019995 2.702,-2.7019995 1.492273,0 2.702,1.2097265 2.702,2.7019995 z" />
	<circle
   cx="71.786003"
   cy="11.836"
   r="2.7019999"
   id="circle3215"
   sodipodi:cx="71.786003"
   sodipodi:cy="11.836"
   sodipodi:rx="2.7019999"
   sodipodi:ry="2.7019999"
   style="fill:#ffffff;stroke:#000000;stroke-width:1.10000002"
   d="m 74.488003,11.836 c 0,1.492274 -1.209727,2.702 -2.702,2.702 -1.492273,0 -2.702,-1.209726 -2.702,-2.702 0,-1.492273 1.209727,-2.7019995 2.702,-2.7019995 1.492273,0 2.702,1.2097265 2.702,2.7019995 z" />
	<path
   d="m 68.226,2.352 c 0,0 0,0 -5.404,-1.272 l -1.986,6.278"
   id="path3217"
   inkscape:connector-curvature="0"
   style="fill:none;stroke:#000000;stroke-width:1.10000002;stroke-linecap:round;stroke-linejoin:round" />
	<ellipse
   cx="56.146"
   cy="28.417999"
   rx="4.4109998"
   ry="5.3239999"
   id="ellipse3219"
   sodipodi:cx="56.146"
   sodipodi:cy="28.417999"
   sodipodi:rx="4.4109998"
   sodipodi:ry="5.3239999"
   style="fill:#ffffff;stroke:#000000;stroke-width:1.10000002"
   d="m 60.557,28.417999 c 0,2.940364 -1.974872,5.324 -4.411,5.324 -2.436128,0 -4.411,-2.383636 -4.411,-5.324 0,-2.940364 1.974872,-5.324 4.411,-5.324 2.436128,0 4.411,2.383636 4.411,5.324 z" />
	<circle
   cx="70.431"
   cy="2.789"
   r="2.1300001"
   id="circle3221"
   sodipodi:cx="70.431"
   sodipodi:cy="2.789"
   sodipodi:rx="2.1300001"
   sodipodi:ry="2.1300001"
   style="fill:#ffffff;stroke:#000000;stroke-width:1.10000002"
   d="m 72.561,2.789 c 0,1.1763666 -0.953634,2.1300001 -2.13,2.1300001 -1.176367,0 -2.13,-0.9536335 -2.13,-2.1300001 0,-1.1763665 0.953633,-2.13000008 2.13,-2.13000008 1.176366,0 2.13,0.95363358 2.13,2.13000008 z" />
	<g
   id="g3223">
		<g
   id="g3225">
			<path
   d="m 59.181,39.289 h 2.99 c 2.655,-1.383 4.624,-6.34 4.624,-12.262 0,-6.99 -2.74,-12.655 -6.119,-12.655 -3.38,0 -6.119,5.666 -6.119,12.655 0,5.922 1.968,10.879 4.624,12.262 z"
   id="path3227"
   inkscape:connector-curvature="0"
   style="fill:#ffffff" />
		</g>
		<g
   id="g3229">
			<path
   d="m 59.181,39.289 h 2.99 c 2.655,-1.383 4.624,-6.34 4.624,-12.262 0,-6.99 -2.74,-12.655 -6.119,-12.655 -3.38,0 -6.119,5.666 -6.119,12.655 0,5.922 1.968,10.879 4.624,12.262 z"
   id="path3231"
   inkscape:connector-curvature="0"
   style="fill:none;stroke:#000000;stroke-width:1.10000002" />
		</g>
	</g>
	<ellipse
   cx="60.675999"
   cy="15.552"
   rx="12.238"
   ry="7.987"
   id="ellipse3233"
   sodipodi:cx="60.675999"
   sodipodi:cy="15.552"
   sodipodi:rx="12.238"
   sodipodi:ry="7.987"
   style="fill:#ffffff;stroke:#000000;stroke-width:1.10000002"
   d="m 72.913999,15.552 c 0,4.411098 -5.47914,7.987 -12.238,7.987 -6.758861,0 -12.238,-3.575902 -12.238,-7.987 0,-4.411098 5.479139,-7.9869999 12.238,-7.9869999 6.75886,0 12.238,3.5759019 12.238,7.9869999 z" />
	
		<line
   x1="57.457001"
   y1="39.285"
   x2="64.053001"
   y2="39.285"
   id="line3235"
   style="fill:none;stroke:#000000;stroke-width:1.10000002;stroke-linecap:round;stroke-linejoin:round" />
	<g
   id="g3237">
		<circle
   cx="56.426998"
   cy="13.993"
   r="1.4299999"
   id="circle3239"
   sodipodi:cx="56.426998"
   sodipodi:cy="13.993"
   sodipodi:rx="1.4299999"
   sodipodi:ry="1.4299999"
   style="fill:#ff4500;stroke:#ff4500;stroke-width:1.10000002"
   d="m 57.856998,13.993 c 0,0.789767 -0.640233,1.43 -1.43,1.43 -0.789767,0 -1.43,-0.640233 -1.43,-1.43 0,-0.789767 0.640233,-1.43 1.43,-1.43 0.789767,0 1.43,0.640233 1.43,1.43 z" />
		<circle
   cx="65.050003"
   cy="13.993"
   r="1.431"
   id="circle3241"
   sodipodi:cx="65.050003"
   sodipodi:cy="13.993"
   sodipodi:rx="1.431"
   sodipodi:ry="1.431"
   style="fill:#ff4500;stroke:#ff4500;stroke-width:1.10000002"
   d="m 66.481003,13.993 c 0,0.79032 -0.64068,1.431 -1.431,1.431 -0.790319,0 -1.431,-0.64068 -1.431,-1.431 0,-0.790319 0.640681,-1.431 1.431,-1.431 0.79032,0 1.431,0.640681 1.431,1.431 z" />
		<path
   d="m 56.507,19.229 c 1.066,1.066 2.786,1.271 4.212,1.271"
   id="path3243"
   inkscape:connector-curvature="0"
   style="fill:none;stroke:#000000;stroke-width:1.10000002;stroke-linecap:round" />
		<path
   d="M 64.963,19.229 C 63.896,20.295 62.177,20.5 60.75,20.5"
   id="path3245"
   inkscape:connector-curvature="0"
   style="fill:none;stroke:#000000;stroke-width:1.10000002;stroke-linecap:round" />
	</g>
</g>
<g
   id="Layer_3"
   transform="translate(0,216)">
</g>
</svg>